<svg width="81" height="42" viewBox="0 0 81 42" fill="none" xmlns="http://www.w3.org/2000/svg">
<path d="M50.3162 35H35C37.5382 37.3734 39.1299 38.8618 41.3818 40.9674C41.7832 41.3427 42.0199 41.5641 42.6581 41.5641C43.2963 41.5641 43.9345 40.9674 43.9345 40.9674L50.3162 35Z" fill="#8CC84B"/>
<rect width="81" height="35" rx="17.5" fill="#8CC84B"/>
<path d="M15.918 22.112C15.6473 22.112 15.4373 22.0373 15.288 21.888C15.148 21.7387 15.078 21.524 15.078 21.244V12.914C15.078 12.6247 15.148 12.4053 15.288 12.256C15.4373 12.0973 15.6287 12.018 15.862 12.018C16.0767 12.018 16.2353 12.06 16.338 12.144C16.45 12.2187 16.5807 12.3493 16.73 12.536L22.092 19.494H21.728V12.872C21.728 12.6013 21.798 12.3913 21.938 12.242C22.0873 12.0927 22.2973 12.018 22.568 12.018C22.8387 12.018 23.044 12.0927 23.184 12.242C23.324 12.3913 23.394 12.6013 23.394 12.872V21.272C23.394 21.5333 23.3287 21.7387 23.198 21.888C23.0673 22.0373 22.89 22.112 22.666 22.112C22.4513 22.112 22.2787 22.07 22.148 21.986C22.0267 21.902 21.8913 21.7667 21.742 21.58L16.394 14.622H16.744V21.244C16.744 21.524 16.674 21.7387 16.534 21.888C16.394 22.0373 16.1887 22.112 15.918 22.112ZM28.5047 22.14C27.7953 22.14 27.1793 21.9953 26.6567 21.706C26.134 21.4167 25.728 21.006 25.4387 20.474C25.1493 19.9327 25.0047 19.298 25.0047 18.57C25.0047 18.0193 25.084 17.5293 25.2427 17.1C25.4107 16.6613 25.6487 16.288 25.9567 15.98C26.2647 15.6627 26.6333 15.4247 27.0627 15.266C27.492 15.098 27.9727 15.014 28.5047 15.014C29.214 15.014 29.83 15.1587 30.3527 15.448C30.8753 15.7373 31.2813 16.148 31.5707 16.68C31.86 17.212 32.0047 17.842 32.0047 18.57C32.0047 19.1207 31.9207 19.6153 31.7527 20.054C31.594 20.4927 31.3607 20.8707 31.0527 21.188C30.7447 21.496 30.376 21.734 29.9467 21.902C29.5173 22.0607 29.0367 22.14 28.5047 22.14ZM28.5047 20.81C28.85 20.81 29.1533 20.726 29.4147 20.558C29.676 20.39 29.8767 20.1427 30.0167 19.816C30.166 19.48 30.2407 19.0647 30.2407 18.57C30.2407 17.8233 30.082 17.268 29.7647 16.904C29.4473 16.5307 29.0273 16.344 28.5047 16.344C28.1593 16.344 27.856 16.428 27.5947 16.596C27.3333 16.7547 27.128 17.002 26.9787 17.338C26.8387 17.6647 26.7687 18.0753 26.7687 18.57C26.7687 19.3073 26.9273 19.8673 27.2447 20.25C27.562 20.6233 27.982 20.81 28.5047 20.81ZM36.0811 22.14C35.4837 22.14 34.9564 21.9953 34.4991 21.706C34.0511 21.4167 33.7011 21.006 33.4491 20.474C33.1971 19.9327 33.0711 19.298 33.0711 18.57C33.0711 17.8327 33.1971 17.2027 33.4491 16.68C33.7011 16.148 34.0511 15.7373 34.4991 15.448C34.9564 15.1587 35.4837 15.014 36.0811 15.014C36.6504 15.014 37.1451 15.154 37.5651 15.434C37.9944 15.714 38.2837 16.0827 38.4331 16.54H38.2791V12.9C38.2791 12.6107 38.3537 12.3913 38.5031 12.242C38.6524 12.0927 38.8671 12.018 39.1471 12.018C39.4271 12.018 39.6417 12.0927 39.7911 12.242C39.9497 12.3913 40.0291 12.6107 40.0291 12.9V21.216C40.0291 21.5053 39.9544 21.7293 39.8051 21.888C39.6557 22.0373 39.4411 22.112 39.1611 22.112C38.8811 22.112 38.6664 22.0373 38.5171 21.888C38.3677 21.7293 38.2931 21.5053 38.2931 21.216V20.124L38.4471 20.544C38.3071 21.0293 38.0224 21.4167 37.5931 21.706C37.1637 21.9953 36.6597 22.14 36.0811 22.14ZM36.5711 20.81C36.9164 20.81 37.2197 20.726 37.4811 20.558C37.7424 20.39 37.9431 20.1427 38.0831 19.816C38.2324 19.48 38.3071 19.0647 38.3071 18.57C38.3071 17.8233 38.1484 17.268 37.8311 16.904C37.5137 16.5307 37.0937 16.344 36.5711 16.344C36.2257 16.344 35.9224 16.428 35.6611 16.596C35.3997 16.7547 35.1944 17.002 35.0451 17.338C34.9051 17.6647 34.8351 18.0753 34.8351 18.57C34.8351 19.3073 34.9937 19.8673 35.3111 20.25C35.6284 20.6233 36.0484 20.81 36.5711 20.81ZM45.2176 22.14C44.4429 22.14 43.7756 21.9953 43.2156 21.706C42.6556 21.4167 42.2216 21.006 41.9136 20.474C41.6149 19.942 41.4656 19.312 41.4656 18.584C41.4656 17.8747 41.6103 17.254 41.8996 16.722C42.1983 16.19 42.6043 15.7747 43.1176 15.476C43.6403 15.168 44.2329 15.014 44.8956 15.014C45.3809 15.014 45.8149 15.0933 46.1976 15.252C46.5896 15.4107 46.9209 15.6393 47.1916 15.938C47.4716 16.2367 47.6816 16.6007 47.8216 17.03C47.9709 17.45 48.0456 17.926 48.0456 18.458C48.0456 18.626 47.9849 18.7567 47.8636 18.85C47.7516 18.934 47.5883 18.976 47.3736 18.976H42.8796V17.968H46.8136L46.5896 18.178C46.5896 17.7487 46.5243 17.3893 46.3936 17.1C46.2723 16.8107 46.0903 16.5913 45.8476 16.442C45.6143 16.2833 45.3203 16.204 44.9656 16.204C44.5736 16.204 44.2376 16.2973 43.9576 16.484C43.6869 16.6613 43.4769 16.918 43.3276 17.254C43.1876 17.5807 43.1176 17.9727 43.1176 18.43V18.528C43.1176 19.2933 43.2949 19.8673 43.6496 20.25C44.0136 20.6233 44.5456 20.81 45.2456 20.81C45.4883 20.81 45.7589 20.782 46.0576 20.726C46.3656 20.6607 46.6549 20.5533 46.9256 20.404C47.1216 20.292 47.2943 20.2453 47.4436 20.264C47.5929 20.2733 47.7096 20.3247 47.7936 20.418C47.8869 20.5113 47.9429 20.628 47.9616 20.768C47.9803 20.8987 47.9523 21.034 47.8776 21.174C47.8123 21.314 47.6956 21.4353 47.5276 21.538C47.2009 21.7433 46.8229 21.8973 46.3936 22C45.9736 22.0933 45.5816 22.14 45.2176 22.14ZM50.2715 22.07C49.9542 22.07 49.6975 21.972 49.5015 21.776C49.3148 21.58 49.2215 21.328 49.2215 21.02C49.2215 20.7213 49.3148 20.4787 49.5015 20.292C49.6975 20.096 49.9542 19.998 50.2715 19.998C50.5982 19.998 50.8502 20.096 51.0275 20.292C51.2142 20.4787 51.3075 20.7213 51.3075 21.02C51.3075 21.328 51.2142 21.58 51.0275 21.776C50.8502 21.972 50.5982 22.07 50.2715 22.07ZM53.1303 22.098C52.869 22.1073 52.6637 22.0373 52.5143 21.888C52.365 21.7387 52.2903 21.5473 52.2903 21.314C52.2903 21.1367 52.3463 20.9827 52.4583 20.852C52.561 20.712 52.715 20.6373 52.9203 20.628L53.3403 20.6C53.751 20.572 54.059 20.446 54.2643 20.222C54.479 19.9887 54.5863 19.6573 54.5863 19.228V12.928C54.5863 12.6293 54.661 12.4053 54.8103 12.256C54.969 12.0973 55.193 12.018 55.4823 12.018C55.7717 12.018 55.991 12.0973 56.1403 12.256C56.299 12.4053 56.3783 12.6293 56.3783 12.928V19.214C56.3783 19.802 56.271 20.3013 56.0563 20.712C55.851 21.1227 55.543 21.4447 55.1323 21.678C54.7217 21.902 54.213 22.0327 53.6063 22.07L53.1303 22.098ZM61.9155 22.14C61.5049 22.14 61.0942 22.1073 60.6835 22.042C60.2729 21.986 59.8855 21.8973 59.5215 21.776C59.1575 21.6453 58.8309 21.4867 58.5415 21.3C58.3735 21.188 58.2569 21.0527 58.1915 20.894C58.1262 20.7353 58.1029 20.5813 58.1215 20.432C58.1495 20.2733 58.2102 20.138 58.3035 20.026C58.4062 19.9047 58.5322 19.83 58.6815 19.802C58.8309 19.774 58.9942 19.816 59.1715 19.928C59.5822 20.1707 60.0162 20.348 60.4735 20.46C60.9309 20.572 61.4115 20.628 61.9155 20.628C62.6529 20.628 63.1895 20.5067 63.5255 20.264C63.8615 20.012 64.0295 19.69 64.0295 19.298C64.0295 18.9713 63.9082 18.7147 63.6655 18.528C63.4322 18.3413 63.0262 18.1873 62.4475 18.066L60.9075 17.744C60.0209 17.5573 59.3582 17.2447 58.9195 16.806C58.4902 16.358 58.2755 15.77 58.2755 15.042C58.2755 14.5847 58.3689 14.1693 58.5555 13.796C58.7422 13.4227 59.0035 13.1007 59.3395 12.83C59.6849 12.5593 60.0909 12.354 60.5575 12.214C61.0335 12.0647 61.5562 11.99 62.1255 11.99C62.6855 11.99 63.2175 12.06 63.7215 12.2C64.2255 12.34 64.6782 12.5453 65.0795 12.816C65.2289 12.9187 65.3269 13.0447 65.3735 13.194C65.4295 13.3433 65.4435 13.4927 65.4155 13.642C65.3875 13.782 65.3222 13.9033 65.2195 14.006C65.1169 14.1087 64.9862 14.1693 64.8275 14.188C64.6782 14.2067 64.5055 14.16 64.3095 14.048C63.9642 13.852 63.6142 13.712 63.2595 13.628C62.9049 13.544 62.5222 13.502 62.1115 13.502C61.6822 13.502 61.3135 13.5627 61.0055 13.684C60.6975 13.8053 60.4595 13.978 60.2915 14.202C60.1329 14.4167 60.0535 14.6733 60.0535 14.972C60.0535 15.308 60.1655 15.5787 60.3895 15.784C60.6135 15.98 60.9962 16.134 61.5375 16.246L63.0635 16.568C63.9875 16.764 64.6735 17.072 65.1215 17.492C65.5789 17.912 65.8075 18.472 65.8075 19.172C65.8075 19.62 65.7142 20.026 65.5275 20.39C65.3502 20.754 65.0889 21.0667 64.7435 21.328C64.4075 21.5893 64.0015 21.79 63.5255 21.93C63.0495 22.07 62.5129 22.14 61.9155 22.14Z" fill="#191919"/>
</svg>
