<svg width="50" height="50" viewBox="0 0 59 53" fill="none" xmlns="http://www.w3.org/2000/svg">
<g filter="url(#filter0_d_2_203)">
<path d="M54.4184 22.2687C54.4184 18.9564 50.2704 15.8174 43.9109 13.8708C45.3784 7.38891 44.7262 2.23196 41.8521 0.580921C41.1897 0.19364 40.4151 0.0101914 39.5692 0.0101914V2.28292C40.038 2.28292 40.4151 2.37464 40.7311 2.5479C42.1171 3.34285 42.7184 6.36975 42.2496 10.2629C42.1375 11.221 41.9541 12.2299 41.7299 13.2593C39.7323 12.7701 37.5513 12.393 35.2582 12.1484C33.8823 10.2629 32.4555 8.55075 31.0185 7.05259C34.3409 3.96453 37.4596 2.27273 39.5794 2.27273V0C36.7767 0 33.1078 1.99755 29.398 5.4627C25.6883 2.01794 22.0193 0.0407666 19.2166 0.0407666V2.31349C21.3263 2.31349 24.4551 3.99511 27.7775 7.06278C26.3507 8.56095 24.9239 10.2629 23.5684 12.1484C21.2651 12.393 19.0841 12.7701 17.0866 13.2695C16.8522 12.2503 16.6789 11.2617 16.5566 10.3139C16.0776 6.42071 16.6687 3.3938 18.0446 2.58867C18.3503 2.40522 18.7478 2.32369 19.2166 2.32369V0.050958C18.3605 0.050958 17.5859 0.234407 16.9133 0.621688C14.0495 2.27273 13.4074 7.41949 14.8852 13.881C8.54599 15.8377 4.4184 18.9666 4.4184 22.2687C4.4184 25.5809 8.56638 28.7199 14.9259 30.6665C13.4583 37.1484 14.1106 42.3053 16.9846 43.9564C17.6471 44.3437 18.4217 44.5271 19.2778 44.5271C22.0804 44.5271 25.7494 42.5296 29.4592 39.0644C33.1689 42.5092 36.8379 44.4863 39.6406 44.4863C40.4967 44.4863 41.2712 44.3029 41.9439 43.9156C44.8077 42.2646 45.4498 37.1178 43.972 30.6563C50.2908 28.7097 54.4184 25.5707 54.4184 22.2687ZM41.1489 15.4709C40.7718 16.7856 40.303 18.1411 39.7731 19.4965C39.3552 18.6812 38.917 17.8659 38.438 17.0506C37.9692 16.2352 37.4698 15.4403 36.9704 14.6657C38.4176 14.8797 39.8138 15.1447 41.1489 15.4709ZM36.4812 26.3249C35.6862 27.7008 34.8709 29.0053 34.025 30.2181C32.5065 30.3506 30.9675 30.4219 29.4184 30.4219C27.8795 30.4219 26.3405 30.3506 24.8322 30.2283C23.9863 29.0155 23.1608 27.7212 22.3658 26.3555C21.5912 25.0204 20.888 23.6649 20.246 22.2992C20.8778 20.9335 21.5912 19.5679 22.3556 18.2328C23.1506 16.8569 23.9659 15.5524 24.8118 14.3396C26.3303 14.2071 27.8693 14.1358 29.4184 14.1358C30.9573 14.1358 32.4963 14.2071 34.0046 14.3294C34.8505 15.5422 35.676 16.8365 36.471 18.2022C37.2455 19.5373 37.9488 20.8928 38.5908 22.2585C37.9488 23.6241 37.2455 24.9898 36.4812 26.3249ZM39.7731 25C40.3234 26.3657 40.7922 27.7313 41.1795 29.0563C39.8444 29.3824 38.438 29.6576 36.9806 29.8716C37.48 29.0868 37.9793 28.2817 38.4482 27.4562C38.917 26.6408 39.3552 25.8153 39.7731 25ZM29.4388 35.8744C28.491 34.896 27.5431 33.8055 26.6055 32.6131C27.5228 32.6539 28.4604 32.6845 29.4082 32.6845C30.3662 32.6845 31.314 32.6641 32.2415 32.6131C31.3242 33.8055 30.3764 34.896 29.4388 35.8744ZM21.8562 29.8716C20.409 29.6576 19.0128 29.3926 17.6777 29.0664C18.0548 27.7517 18.5236 26.3962 19.0535 25.0408C19.4714 25.8561 19.9096 26.6714 20.3886 27.4867C20.8676 28.3021 21.3568 29.097 21.8562 29.8716ZM29.3878 8.66286C30.3356 9.64126 31.2835 10.7318 32.2211 11.9242C31.3038 11.8834 30.3662 11.8528 29.4184 11.8528C28.4604 11.8528 27.5126 11.8732 26.5851 11.9242C27.5024 10.7318 28.4502 9.64126 29.3878 8.66286ZM21.846 14.6657C21.3466 15.4505 20.8473 16.2556 20.3784 17.0811C19.9096 17.8965 19.4714 18.7118 19.0535 19.5271C18.5032 18.1614 18.0344 16.7958 17.6471 15.4709C18.9822 15.1549 20.3886 14.8797 21.846 14.6657ZM12.6226 27.4256C9.01481 25.8867 6.68093 23.8687 6.68093 22.2687C6.68093 20.6686 9.01481 18.6404 12.6226 17.1117C13.4991 16.7346 14.4571 16.3983 15.4457 16.0823C16.0266 18.0799 16.791 20.159 17.7388 22.289C16.8012 24.4089 16.047 26.4778 15.4763 28.4651C14.4673 28.1492 13.5093 27.8027 12.6226 27.4256ZM18.1057 41.9894C16.7197 41.1945 16.1184 38.1675 16.5872 34.2744C16.6993 33.3163 16.8827 32.3074 17.1069 31.278C19.1045 31.7672 21.2855 32.1443 23.5786 32.3889C24.9545 34.2744 26.3813 35.9865 27.8183 37.4847C24.4959 40.5728 21.3772 42.2646 19.2574 42.2646C18.7987 42.2544 18.4115 42.1627 18.1057 41.9894ZM42.2802 34.2234C42.7592 38.1166 42.1681 41.1435 40.7922 41.9486C40.4865 42.1321 40.089 42.2136 39.6202 42.2136C37.5105 42.2136 34.3817 40.532 31.0592 37.4643C32.4861 35.9662 33.9129 34.2642 35.2684 32.3787C37.5717 32.1341 39.7527 31.757 41.7502 31.2576C41.9846 32.287 42.1681 33.2756 42.2802 34.2234ZM46.204 27.4256C45.3275 27.8027 44.3695 28.139 43.3809 28.455C42.8 26.4574 42.0356 24.3783 41.0878 22.2483C42.0254 20.1284 42.7796 18.0595 43.3503 16.0722C44.3593 16.3881 45.3173 16.7346 46.2142 17.1117C49.822 18.6506 52.1559 20.6686 52.1559 22.2687C52.1457 23.8687 49.8118 25.8969 46.204 27.4256Z" fill="#61DAFB"/>
<path d="M29.4082 26.9262C31.9805 26.9262 34.0658 24.841 34.0658 22.2687C34.0658 19.6964 31.9805 17.6111 29.4082 17.6111C26.8359 17.6111 24.7506 19.6964 24.7506 22.2687C24.7506 24.841 26.8359 26.9262 29.4082 26.9262Z" fill="#61DAFB"/>
</g>
<defs>
<filter id="filter0_d_2_203" x="0.418396" y="0" width="58" height="52.5271" filterUnits="userSpaceOnUse" color-interpolation-filters="sRGB">
<feFlood flood-opacity="0" result="BackgroundImageFix"/>
<feColorMatrix in="SourceAlpha" type="matrix" values="0 0 0 0 0 0 0 0 0 0 0 0 0 0 0 0 0 0 127 0" result="hardAlpha"/>
<feOffset dy="4"/>
<feGaussianBlur stdDeviation="2"/>
<feComposite in2="hardAlpha" operator="out"/>
<feColorMatrix type="matrix" values="0 0 0 0 0 0 0 0 0 0 0 0 0 0 0 0 0 0 0.25 0"/>
<feBlend mode="normal" in2="BackgroundImageFix" result="effect1_dropShadow_2_203"/>
<feBlend mode="normal" in="SourceGraphic" in2="effect1_dropShadow_2_203" result="shape"/>
</filter>
</defs>
</svg>
