<svg width="97" height="42" viewBox="0 0 97 42" fill="none" xmlns="http://www.w3.org/2000/svg">
<path d="M56.3162 35H41C43.5382 37.3734 45.1299 38.8618 47.3818 40.9674C47.7832 41.3427 48.0199 41.5641 48.6581 41.5641C49.2963 41.5641 49.9345 40.9674 49.9345 40.9674L56.3162 35Z" fill="white"/>
<rect width="97" height="35" rx="17.5" fill="white"/>
<path d="M16.03 22C15.722 22 15.484 21.9207 15.316 21.762C15.1573 21.594 15.078 21.356 15.078 21.048V13.082C15.078 12.774 15.1573 12.5407 15.316 12.382C15.484 12.214 15.722 12.13 16.03 12.13H21.028C21.2613 12.13 21.4387 12.1907 21.56 12.312C21.6907 12.4333 21.756 12.606 21.756 12.83C21.756 13.0633 21.6907 13.2453 21.56 13.376C21.4387 13.4973 21.2613 13.558 21.028 13.558H16.8V16.274H20.72C20.9627 16.274 21.1447 16.3347 21.266 16.456C21.3873 16.5773 21.448 16.7547 21.448 16.988C21.448 17.2213 21.3873 17.3987 21.266 17.52C21.1447 17.6413 20.9627 17.702 20.72 17.702H16.8V20.572H21.028C21.2613 20.572 21.4387 20.6327 21.56 20.754C21.6907 20.8753 21.756 21.0527 21.756 21.286C21.756 21.5193 21.6907 21.6967 21.56 21.818C21.4387 21.9393 21.2613 22 21.028 22H16.03ZM23.7395 22.07C23.5342 22.07 23.3615 22.014 23.2215 21.902C23.0908 21.7807 23.0208 21.6267 23.0115 21.44C23.0115 21.2533 23.0908 21.0573 23.2495 20.852L25.5175 18.052V18.878L23.3895 16.26C23.2215 16.0547 23.1422 15.8587 23.1515 15.672C23.1608 15.4853 23.2308 15.336 23.3615 15.224C23.5015 15.1027 23.6742 15.042 23.8795 15.042C24.0942 15.042 24.2715 15.0793 24.4115 15.154C24.5608 15.2287 24.6962 15.3453 24.8175 15.504L26.4975 17.66H25.8815L27.5755 15.504C27.7062 15.3453 27.8415 15.2287 27.9815 15.154C28.1215 15.0793 28.2942 15.042 28.4995 15.042C28.7142 15.042 28.8868 15.1027 29.0175 15.224C29.1482 15.3453 29.2135 15.4993 29.2135 15.686C29.2228 15.8727 29.1435 16.0687 28.9755 16.274L26.8615 18.864V18.08L29.1295 20.852C29.2975 21.048 29.3768 21.2393 29.3675 21.426C29.3582 21.6127 29.2835 21.7667 29.1435 21.888C29.0128 22.0093 28.8402 22.07 28.6255 22.07C28.4202 22.07 28.2475 22.0327 28.1075 21.958C27.9675 21.8833 27.8322 21.7667 27.7015 21.608L25.8815 19.312H26.4695L24.6635 21.608C24.5422 21.7573 24.4115 21.874 24.2715 21.958C24.1315 22.0327 23.9542 22.07 23.7395 22.07ZM31.7741 24.632C31.4941 24.632 31.2794 24.5573 31.1301 24.408C30.9808 24.2587 30.9061 24.0393 30.9061 23.75V15.924C30.9061 15.6347 30.9808 15.4153 31.1301 15.266C31.2794 15.1167 31.4894 15.042 31.7601 15.042C32.0401 15.042 32.2548 15.1167 32.4041 15.266C32.5534 15.4153 32.6281 15.6347 32.6281 15.924V17.016L32.4741 16.596C32.6141 16.12 32.8988 15.7373 33.3281 15.448C33.7668 15.1587 34.2754 15.014 34.8541 15.014C35.4514 15.014 35.9741 15.1587 36.4221 15.448C36.8794 15.7373 37.2341 16.148 37.4861 16.68C37.7381 17.2027 37.8641 17.8327 37.8641 18.57C37.8641 19.298 37.7381 19.9327 37.4861 20.474C37.2341 21.006 36.8841 21.4167 36.4361 21.706C35.9881 21.9953 35.4608 22.14 34.8541 22.14C34.2848 22.14 33.7854 22 33.3561 21.72C32.9268 21.4307 32.6374 21.0573 32.4881 20.6H32.6561V23.75C32.6561 24.0393 32.5768 24.2587 32.4181 24.408C32.2688 24.5573 32.0541 24.632 31.7741 24.632ZM34.3641 20.81C34.7094 20.81 35.0128 20.726 35.2741 20.558C35.5354 20.39 35.7361 20.1427 35.8761 19.816C36.0254 19.48 36.1001 19.0647 36.1001 18.57C36.1001 17.8233 35.9414 17.268 35.6241 16.904C35.3068 16.5307 34.8868 16.344 34.3641 16.344C34.0188 16.344 33.7154 16.428 33.4541 16.596C33.1928 16.7547 32.9874 17.002 32.8381 17.338C32.6981 17.6647 32.6281 18.0753 32.6281 18.57C32.6281 19.3073 32.7868 19.8673 33.1041 20.25C33.4214 20.6233 33.8414 20.81 34.3641 20.81ZM40.1966 22.112C39.9073 22.112 39.6833 22.0373 39.5246 21.888C39.3753 21.7293 39.3006 21.5053 39.3006 21.216V15.924C39.3006 15.6347 39.3753 15.4153 39.5246 15.266C39.674 15.1167 39.884 15.042 40.1546 15.042C40.4253 15.042 40.6353 15.1167 40.7846 15.266C40.934 15.4153 41.0086 15.6347 41.0086 15.924V16.806H40.8686C40.9993 16.246 41.256 15.8213 41.6386 15.532C42.0213 15.2427 42.53 15.07 43.1646 15.014C43.3606 14.9953 43.5146 15.0467 43.6266 15.168C43.748 15.28 43.818 15.4573 43.8366 15.7C43.8553 15.9333 43.7993 16.1247 43.6686 16.274C43.5473 16.414 43.3606 16.498 43.1086 16.526L42.8006 16.554C42.2313 16.61 41.802 16.7873 41.5126 17.086C41.2233 17.3753 41.0786 17.786 41.0786 18.318V21.216C41.0786 21.5053 41.004 21.7293 40.8546 21.888C40.7053 22.0373 40.486 22.112 40.1966 22.112ZM48.0477 22.14C47.273 22.14 46.6057 21.9953 46.0457 21.706C45.4857 21.4167 45.0517 21.006 44.7437 20.474C44.445 19.942 44.2957 19.312 44.2957 18.584C44.2957 17.8747 44.4403 17.254 44.7297 16.722C45.0283 16.19 45.4343 15.7747 45.9477 15.476C46.4703 15.168 47.063 15.014 47.7257 15.014C48.211 15.014 48.645 15.0933 49.0277 15.252C49.4197 15.4107 49.751 15.6393 50.0217 15.938C50.3017 16.2367 50.5117 16.6007 50.6517 17.03C50.801 17.45 50.8757 17.926 50.8757 18.458C50.8757 18.626 50.815 18.7567 50.6937 18.85C50.5817 18.934 50.4183 18.976 50.2037 18.976H45.7097V17.968H49.6437L49.4197 18.178C49.4197 17.7487 49.3543 17.3893 49.2237 17.1C49.1023 16.8107 48.9203 16.5913 48.6777 16.442C48.4443 16.2833 48.1503 16.204 47.7957 16.204C47.4037 16.204 47.0677 16.2973 46.7877 16.484C46.517 16.6613 46.307 16.918 46.1577 17.254C46.0177 17.5807 45.9477 17.9727 45.9477 18.43V18.528C45.9477 19.2933 46.125 19.8673 46.4797 20.25C46.8437 20.6233 47.3757 20.81 48.0757 20.81C48.3183 20.81 48.589 20.782 48.8877 20.726C49.1957 20.6607 49.485 20.5533 49.7557 20.404C49.9517 20.292 50.1243 20.2453 50.2737 20.264C50.423 20.2733 50.5397 20.3247 50.6237 20.418C50.717 20.5113 50.773 20.628 50.7917 20.768C50.8103 20.8987 50.7823 21.034 50.7077 21.174C50.6423 21.314 50.5257 21.4353 50.3577 21.538C50.031 21.7433 49.653 21.8973 49.2237 22C48.8037 22.0933 48.4117 22.14 48.0477 22.14ZM54.7676 22.14C54.3662 22.14 53.9416 22.098 53.4936 22.014C53.0456 21.93 52.6442 21.7853 52.2896 21.58C52.1402 21.4867 52.0329 21.3793 51.9676 21.258C51.9116 21.1273 51.8882 21.0013 51.8976 20.88C51.9162 20.7493 51.9629 20.6373 52.0376 20.544C52.1216 20.4507 52.2242 20.39 52.3456 20.362C52.4762 20.334 52.6162 20.3573 52.7656 20.432C53.1389 20.6093 53.4889 20.7353 53.8156 20.81C54.1422 20.8753 54.4642 20.908 54.7816 20.908C55.2296 20.908 55.5609 20.8333 55.7756 20.684C55.9996 20.5253 56.1116 20.32 56.1116 20.068C56.1116 19.8533 56.0369 19.69 55.8876 19.578C55.7476 19.4567 55.5329 19.368 55.2436 19.312L53.8436 19.046C53.2649 18.934 52.8216 18.724 52.5136 18.416C52.2149 18.0987 52.0656 17.6927 52.0656 17.198C52.0656 16.75 52.1869 16.3627 52.4296 16.036C52.6816 15.7093 53.0269 15.4573 53.4656 15.28C53.9042 15.1027 54.4082 15.014 54.9776 15.014C55.3882 15.014 55.7709 15.0607 56.1256 15.154C56.4896 15.238 56.8396 15.3733 57.1756 15.56C57.3156 15.6347 57.4089 15.7327 57.4556 15.854C57.5116 15.9753 57.5256 16.1013 57.4976 16.232C57.4696 16.3533 57.4136 16.4653 57.3296 16.568C57.2456 16.6613 57.1382 16.722 57.0076 16.75C56.8862 16.7687 56.7462 16.7407 56.5876 16.666C56.2982 16.5167 56.0182 16.4093 55.7476 16.344C55.4862 16.2787 55.2342 16.246 54.9916 16.246C54.5342 16.246 54.1936 16.3253 53.9696 16.484C53.7549 16.6427 53.6476 16.8527 53.6476 17.114C53.6476 17.31 53.7129 17.4733 53.8436 17.604C53.9742 17.7347 54.1749 17.8233 54.4456 17.87L55.8456 18.136C56.4522 18.248 56.9096 18.4533 57.2176 18.752C57.5349 19.0507 57.6936 19.452 57.6936 19.956C57.6936 20.6373 57.4276 21.174 56.8956 21.566C56.3636 21.9487 55.6542 22.14 54.7676 22.14ZM61.6035 22.14C61.2022 22.14 60.7775 22.098 60.3295 22.014C59.8815 21.93 59.4802 21.7853 59.1255 21.58C58.9762 21.4867 58.8688 21.3793 58.8035 21.258C58.7475 21.1273 58.7242 21.0013 58.7335 20.88C58.7522 20.7493 58.7988 20.6373 58.8735 20.544C58.9575 20.4507 59.0602 20.39 59.1815 20.362C59.3122 20.334 59.4522 20.3573 59.6015 20.432C59.9748 20.6093 60.3248 20.7353 60.6515 20.81C60.9782 20.8753 61.3002 20.908 61.6175 20.908C62.0655 20.908 62.3968 20.8333 62.6115 20.684C62.8355 20.5253 62.9475 20.32 62.9475 20.068C62.9475 19.8533 62.8728 19.69 62.7235 19.578C62.5835 19.4567 62.3688 19.368 62.0795 19.312L60.6795 19.046C60.1008 18.934 59.6575 18.724 59.3495 18.416C59.0508 18.0987 58.9015 17.6927 58.9015 17.198C58.9015 16.75 59.0228 16.3627 59.2655 16.036C59.5175 15.7093 59.8628 15.4573 60.3015 15.28C60.7402 15.1027 61.2442 15.014 61.8135 15.014C62.2242 15.014 62.6068 15.0607 62.9615 15.154C63.3255 15.238 63.6755 15.3733 64.0115 15.56C64.1515 15.6347 64.2448 15.7327 64.2915 15.854C64.3475 15.9753 64.3615 16.1013 64.3335 16.232C64.3055 16.3533 64.2495 16.4653 64.1655 16.568C64.0815 16.6613 63.9742 16.722 63.8435 16.75C63.7222 16.7687 63.5822 16.7407 63.4235 16.666C63.1342 16.5167 62.8542 16.4093 62.5835 16.344C62.3222 16.2787 62.0702 16.246 61.8275 16.246C61.3702 16.246 61.0295 16.3253 60.8055 16.484C60.5908 16.6427 60.4835 16.8527 60.4835 17.114C60.4835 17.31 60.5488 17.4733 60.6795 17.604C60.8102 17.7347 61.0108 17.8233 61.2815 17.87L62.6815 18.136C63.2882 18.248 63.7455 18.4533 64.0535 18.752C64.3708 19.0507 64.5295 19.452 64.5295 19.956C64.5295 20.6373 64.2635 21.174 63.7315 21.566C63.1995 21.9487 62.4902 22.14 61.6035 22.14ZM66.7051 22.07C66.3877 22.07 66.1311 21.972 65.9351 21.776C65.7484 21.58 65.6551 21.328 65.6551 21.02C65.6551 20.7213 65.7484 20.4787 65.9351 20.292C66.1311 20.096 66.3877 19.998 66.7051 19.998C67.0317 19.998 67.2837 20.096 67.4611 20.292C67.6477 20.4787 67.7411 20.7213 67.7411 21.02C67.7411 21.328 67.6477 21.58 67.4611 21.776C67.2837 21.972 67.0317 22.07 66.7051 22.07ZM69.5639 22.098C69.3026 22.1073 69.0973 22.0373 68.9479 21.888C68.7986 21.7387 68.7239 21.5473 68.7239 21.314C68.7239 21.1367 68.7799 20.9827 68.8919 20.852C68.9946 20.712 69.1486 20.6373 69.3539 20.628L69.7739 20.6C70.1846 20.572 70.4926 20.446 70.6979 20.222C70.9126 19.9887 71.0199 19.6573 71.0199 19.228V12.928C71.0199 12.6293 71.0946 12.4053 71.2439 12.256C71.4026 12.0973 71.6266 12.018 71.9159 12.018C72.2053 12.018 72.4246 12.0973 72.5739 12.256C72.7326 12.4053 72.8119 12.6293 72.8119 12.928V19.214C72.8119 19.802 72.7046 20.3013 72.4899 20.712C72.2846 21.1227 71.9766 21.4447 71.5659 21.678C71.1553 21.902 70.6466 22.0327 70.0399 22.07L69.5639 22.098ZM78.3491 22.14C77.9385 22.14 77.5278 22.1073 77.1171 22.042C76.7065 21.986 76.3191 21.8973 75.9551 21.776C75.5911 21.6453 75.2645 21.4867 74.9751 21.3C74.8071 21.188 74.6905 21.0527 74.6251 20.894C74.5598 20.7353 74.5365 20.5813 74.5551 20.432C74.5831 20.2733 74.6438 20.138 74.7371 20.026C74.8398 19.9047 74.9658 19.83 75.1151 19.802C75.2645 19.774 75.4278 19.816 75.6051 19.928C76.0158 20.1707 76.4498 20.348 76.9071 20.46C77.3645 20.572 77.8451 20.628 78.3491 20.628C79.0865 20.628 79.6231 20.5067 79.9591 20.264C80.2951 20.012 80.4631 19.69 80.4631 19.298C80.4631 18.9713 80.3418 18.7147 80.0991 18.528C79.8658 18.3413 79.4598 18.1873 78.8811 18.066L77.3411 17.744C76.4545 17.5573 75.7918 17.2447 75.3531 16.806C74.9238 16.358 74.7091 15.77 74.7091 15.042C74.7091 14.5847 74.8025 14.1693 74.9891 13.796C75.1758 13.4227 75.4371 13.1007 75.7731 12.83C76.1185 12.5593 76.5245 12.354 76.9911 12.214C77.4671 12.0647 77.9898 11.99 78.5591 11.99C79.1191 11.99 79.6511 12.06 80.1551 12.2C80.6591 12.34 81.1118 12.5453 81.5131 12.816C81.6625 12.9187 81.7605 13.0447 81.8071 13.194C81.8631 13.3433 81.8771 13.4927 81.8491 13.642C81.8211 13.782 81.7558 13.9033 81.6531 14.006C81.5505 14.1087 81.4198 14.1693 81.2611 14.188C81.1118 14.2067 80.9391 14.16 80.7431 14.048C80.3978 13.852 80.0478 13.712 79.6931 13.628C79.3385 13.544 78.9558 13.502 78.5451 13.502C78.1158 13.502 77.7471 13.5627 77.4391 13.684C77.1311 13.8053 76.8931 13.978 76.7251 14.202C76.5665 14.4167 76.4871 14.6733 76.4871 14.972C76.4871 15.308 76.5991 15.5787 76.8231 15.784C77.0471 15.98 77.4298 16.134 77.9711 16.246L79.4971 16.568C80.4211 16.764 81.1071 17.072 81.5551 17.492C82.0125 17.912 82.2411 18.472 82.2411 19.172C82.2411 19.62 82.1478 20.026 81.9611 20.39C81.7838 20.754 81.5225 21.0667 81.1771 21.328C80.8411 21.5893 80.4351 21.79 79.9591 21.93C79.4831 22.07 78.9465 22.14 78.3491 22.14Z" fill="#191919"/>
</svg>
