<svg width="94" height="42" viewBox="0 0 94 42" fill="none" xmlns="http://www.w3.org/2000/svg">
<path d="M55.3162 35H40C42.5382 37.3734 44.1299 38.8618 46.3818 40.9674C46.7832 41.3427 47.0199 41.5641 47.6581 41.5641C48.2963 41.5641 48.9345 40.9674 48.9345 40.9674L55.3162 35Z" fill="#47A248"/>
<rect width="94" height="35" rx="17.5" fill="#47A248"/>
<path d="M15.806 22.112C15.526 22.112 15.3113 22.0373 15.162 21.888C15.0127 21.7293 14.938 21.5053 14.938 21.216V15.924C14.938 15.6347 15.0127 15.4153 15.162 15.266C15.3113 15.1167 15.5213 15.042 15.792 15.042C16.0627 15.042 16.2727 15.1167 16.422 15.266C16.5713 15.4153 16.646 15.6347 16.646 15.924V16.946L16.492 16.526C16.6787 16.0593 16.968 15.6907 17.36 15.42C17.752 15.1493 18.2187 15.014 18.76 15.014C19.3107 15.014 19.7633 15.1447 20.118 15.406C20.4727 15.6673 20.72 16.0687 20.86 16.61H20.664C20.8507 16.1153 21.1587 15.728 21.588 15.448C22.0173 15.1587 22.512 15.014 23.072 15.014C23.5947 15.014 24.024 15.1167 24.36 15.322C24.7053 15.5273 24.962 15.84 25.13 16.26C25.298 16.6707 25.382 17.1933 25.382 17.828V21.216C25.382 21.5053 25.3027 21.7293 25.144 21.888C24.9947 22.0373 24.78 22.112 24.5 22.112C24.22 22.112 24.0053 22.0373 23.856 21.888C23.7067 21.7293 23.632 21.5053 23.632 21.216V17.898C23.632 17.3753 23.5433 16.9927 23.366 16.75C23.198 16.5073 22.9087 16.386 22.498 16.386C22.0407 16.386 21.6813 16.5493 21.42 16.876C21.1587 17.1933 21.028 17.6367 21.028 18.206V21.216C21.028 21.5053 20.9533 21.7293 20.804 21.888C20.6547 22.0373 20.44 22.112 20.16 22.112C19.88 22.112 19.6607 22.0373 19.502 21.888C19.3527 21.7293 19.278 21.5053 19.278 21.216V17.898C19.278 17.3753 19.1893 16.9927 19.012 16.75C18.844 16.5073 18.5593 16.386 18.158 16.386C17.7007 16.386 17.3413 16.5493 17.08 16.876C16.8187 17.1933 16.688 17.6367 16.688 18.206V21.216C16.688 21.8133 16.394 22.112 15.806 22.112ZM30.3093 22.14C29.6 22.14 28.984 21.9953 28.4613 21.706C27.9387 21.4167 27.5327 21.006 27.2433 20.474C26.954 19.9327 26.8093 19.298 26.8093 18.57C26.8093 18.0193 26.8887 17.5293 27.0473 17.1C27.2153 16.6613 27.4533 16.288 27.7613 15.98C28.0693 15.6627 28.438 15.4247 28.8673 15.266C29.2967 15.098 29.7773 15.014 30.3093 15.014C31.0187 15.014 31.6347 15.1587 32.1573 15.448C32.68 15.7373 33.086 16.148 33.3753 16.68C33.6647 17.212 33.8093 17.842 33.8093 18.57C33.8093 19.1207 33.7253 19.6153 33.5573 20.054C33.3987 20.4927 33.1653 20.8707 32.8573 21.188C32.5493 21.496 32.1807 21.734 31.7513 21.902C31.322 22.0607 30.8413 22.14 30.3093 22.14ZM30.3093 20.81C30.6547 20.81 30.958 20.726 31.2193 20.558C31.4807 20.39 31.6813 20.1427 31.8213 19.816C31.9707 19.48 32.0453 19.0647 32.0453 18.57C32.0453 17.8233 31.8867 17.268 31.5693 16.904C31.252 16.5307 30.832 16.344 30.3093 16.344C29.964 16.344 29.6607 16.428 29.3993 16.596C29.138 16.7547 28.9327 17.002 28.7833 17.338C28.6433 17.6647 28.5733 18.0753 28.5733 18.57C28.5733 19.3073 28.732 19.8673 29.0493 20.25C29.3667 20.6233 29.7867 20.81 30.3093 20.81ZM36.1218 22.112C35.8418 22.112 35.6271 22.0373 35.4778 21.888C35.3284 21.7293 35.2538 21.5053 35.2538 21.216V15.924C35.2538 15.6347 35.3284 15.4153 35.4778 15.266C35.6271 15.1167 35.8371 15.042 36.1078 15.042C36.3784 15.042 36.5884 15.1167 36.7378 15.266C36.8871 15.4153 36.9618 15.6347 36.9618 15.924V16.876L36.8078 16.526C37.0131 16.0313 37.3304 15.658 37.7598 15.406C38.1984 15.1447 38.6931 15.014 39.2438 15.014C39.7944 15.014 40.2471 15.1167 40.6018 15.322C40.9564 15.5273 41.2224 15.84 41.3998 16.26C41.5771 16.6707 41.6658 17.1933 41.6658 17.828V21.216C41.6658 21.5053 41.5911 21.7293 41.4418 21.888C41.2924 22.0373 41.0778 22.112 40.7978 22.112C40.5178 22.112 40.2984 22.0373 40.1398 21.888C39.9904 21.7293 39.9158 21.5053 39.9158 21.216V17.912C39.9158 17.38 39.8131 16.9927 39.6078 16.75C39.4118 16.5073 39.1038 16.386 38.6838 16.386C38.1704 16.386 37.7598 16.5493 37.4518 16.876C37.1531 17.1933 37.0038 17.618 37.0038 18.15V21.216C37.0038 21.8133 36.7098 22.112 36.1218 22.112ZM46.6352 24.66C46.1312 24.66 45.6412 24.6133 45.1652 24.52C44.6985 24.4267 44.2739 24.282 43.8912 24.086C43.7139 23.9927 43.5925 23.8807 43.5272 23.75C43.4712 23.6193 43.4525 23.484 43.4712 23.344C43.4992 23.2133 43.5552 23.0967 43.6392 22.994C43.7325 22.8913 43.8445 22.8213 43.9752 22.784C44.1059 22.7467 44.2412 22.7653 44.3812 22.84C44.7919 23.0453 45.1792 23.176 45.5432 23.232C45.9165 23.2973 46.2339 23.33 46.4952 23.33C47.1205 23.33 47.5872 23.176 47.8952 22.868C48.2125 22.5693 48.3712 22.1213 48.3712 21.524V20.264H48.4972C48.3572 20.74 48.0632 21.1227 47.6152 21.412C47.1765 21.692 46.6772 21.832 46.1172 21.832C45.5012 21.832 44.9645 21.692 44.5072 21.412C44.0499 21.1227 43.6952 20.7213 43.4432 20.208C43.1912 19.6947 43.0652 19.0973 43.0652 18.416C43.0652 17.9027 43.1352 17.4407 43.2752 17.03C43.4245 16.61 43.6299 16.2507 43.8912 15.952C44.1619 15.6533 44.4839 15.4247 44.8572 15.266C45.2399 15.098 45.6599 15.014 46.1172 15.014C46.6959 15.014 47.1999 15.1587 47.6292 15.448C48.0679 15.728 48.3525 16.1013 48.4832 16.568L48.3432 16.918V15.924C48.3432 15.6347 48.4179 15.4153 48.5672 15.266C48.7259 15.1167 48.9405 15.042 49.2112 15.042C49.4912 15.042 49.7059 15.1167 49.8552 15.266C50.0045 15.4153 50.0792 15.6347 50.0792 15.924V21.314C50.0792 22.4247 49.7852 23.26 49.1972 23.82C48.6092 24.38 47.7552 24.66 46.6352 24.66ZM46.5932 20.502C46.9572 20.502 47.2699 20.418 47.5312 20.25C47.7925 20.082 47.9932 19.844 48.1332 19.536C48.2825 19.2187 48.3572 18.8453 48.3572 18.416C48.3572 17.772 48.1985 17.268 47.8812 16.904C47.5639 16.5307 47.1345 16.344 46.5932 16.344C46.2292 16.344 45.9165 16.428 45.6552 16.596C45.3939 16.764 45.1885 17.002 45.0392 17.31C44.8992 17.618 44.8292 17.9867 44.8292 18.416C44.8292 19.06 44.9879 19.5687 45.3052 19.942C45.6225 20.3153 46.0519 20.502 46.5932 20.502ZM55.0144 22.14C54.3051 22.14 53.6891 21.9953 53.1664 21.706C52.6438 21.4167 52.2378 21.006 51.9484 20.474C51.6591 19.9327 51.5144 19.298 51.5144 18.57C51.5144 18.0193 51.5938 17.5293 51.7524 17.1C51.9204 16.6613 52.1584 16.288 52.4664 15.98C52.7744 15.6627 53.1431 15.4247 53.5724 15.266C54.0018 15.098 54.4824 15.014 55.0144 15.014C55.7238 15.014 56.3398 15.1587 56.8624 15.448C57.3851 15.7373 57.7911 16.148 58.0804 16.68C58.3698 17.212 58.5144 17.842 58.5144 18.57C58.5144 19.1207 58.4304 19.6153 58.2624 20.054C58.1038 20.4927 57.8704 20.8707 57.5624 21.188C57.2544 21.496 56.8858 21.734 56.4564 21.902C56.0271 22.0607 55.5464 22.14 55.0144 22.14ZM55.0144 20.81C55.3598 20.81 55.6631 20.726 55.9244 20.558C56.1858 20.39 56.3864 20.1427 56.5264 19.816C56.6758 19.48 56.7504 19.0647 56.7504 18.57C56.7504 17.8233 56.5918 17.268 56.2744 16.904C55.9571 16.5307 55.5371 16.344 55.0144 16.344C54.6691 16.344 54.3658 16.428 54.1044 16.596C53.8431 16.7547 53.6378 17.002 53.4884 17.338C53.3484 17.6647 53.2784 18.0753 53.2784 18.57C53.2784 19.3073 53.4371 19.8673 53.7544 20.25C54.0718 20.6233 54.4918 20.81 55.0144 20.81ZM61.0788 22C60.7708 22 60.5328 21.9207 60.3648 21.762C60.2062 21.594 60.1268 21.356 60.1268 21.048V13.082C60.1268 12.774 60.2062 12.5407 60.3648 12.382C60.5328 12.214 60.7708 12.13 61.0788 12.13H63.7948C65.4468 12.13 66.7208 12.5547 67.6168 13.404C68.5222 14.2533 68.9748 15.4713 68.9748 17.058C68.9748 17.8513 68.8582 18.556 68.6248 19.172C68.4008 19.7787 68.0648 20.292 67.6168 20.712C67.1782 21.132 66.6368 21.454 65.9928 21.678C65.3582 21.8927 64.6255 22 63.7948 22H61.0788ZM61.9188 20.516H63.6828C64.2615 20.516 64.7608 20.446 65.1808 20.306C65.6102 20.1567 65.9648 19.942 66.2448 19.662C66.5342 19.3727 66.7488 19.0133 66.8888 18.584C67.0288 18.1453 67.0988 17.6367 67.0988 17.058C67.0988 15.9007 66.8142 15.0373 66.2448 14.468C65.6755 13.8987 64.8215 13.614 63.6828 13.614H61.9188V20.516ZM71.7429 22C71.4349 22 71.1969 21.9207 71.0289 21.762C70.8702 21.594 70.7909 21.356 70.7909 21.048V13.082C70.7909 12.774 70.8702 12.5407 71.0289 12.382C71.1969 12.214 71.4349 12.13 71.7429 12.13H75.1029C75.7936 12.13 76.3816 12.2327 76.8669 12.438C77.3522 12.6433 77.7209 12.9373 77.9729 13.32C78.2342 13.7027 78.3649 14.16 78.3649 14.692C78.3649 15.2893 78.1922 15.7933 77.8469 16.204C77.5016 16.6147 77.0302 16.89 76.4329 17.03V16.82C77.1236 16.9227 77.6602 17.184 78.0429 17.604C78.4256 18.024 78.6169 18.57 78.6169 19.242C78.6169 20.1193 78.3182 20.8007 77.7209 21.286C77.1329 21.762 76.3116 22 75.2569 22H71.7429ZM72.5129 20.642H75.0329C75.6676 20.642 76.1342 20.5207 76.4329 20.278C76.7316 20.026 76.8809 19.6527 76.8809 19.158C76.8809 18.654 76.7316 18.2807 76.4329 18.038C76.1342 17.7953 75.6676 17.674 75.0329 17.674H72.5129V20.642ZM72.5129 16.316H74.7949C75.4109 16.316 75.8682 16.1993 76.1669 15.966C76.4749 15.7233 76.6289 15.3687 76.6289 14.902C76.6289 14.4353 76.4749 14.0853 76.1669 13.852C75.8682 13.6093 75.4109 13.488 74.7949 13.488H72.5129V16.316Z" fill="white"/>
</svg>
