<svg width="83" height="42" viewBox="0 0 83 42" fill="none" xmlns="http://www.w3.org/2000/svg">
<path d="M50.3162 35H35C37.5382 37.3734 39.1299 38.8618 41.3818 40.9674C41.7832 41.3427 42.0199 41.5641 42.6581 41.5641C43.2963 41.5641 43.9345 40.9674 43.9345 40.9674L50.3162 35Z" fill="#61DAFB"/>
<rect width="83" height="35" rx="17.5" fill="#61DAFB"/>
<path d="M15.974 22.112C15.6847 22.112 15.4607 22.0327 15.302 21.874C15.1527 21.706 15.078 21.4773 15.078 21.188V13.04C15.078 12.7413 15.1573 12.5173 15.316 12.368C15.4747 12.2093 15.6987 12.13 15.988 12.13H19.362C20.4447 12.13 21.28 12.3913 21.868 12.914C22.456 13.4273 22.75 14.1507 22.75 15.084C22.75 15.6907 22.6147 16.2133 22.344 16.652C22.0827 17.0907 21.7 17.4267 21.196 17.66C20.692 17.8933 20.0807 18.01 19.362 18.01L19.488 17.8H19.95C20.3327 17.8 20.664 17.8933 20.944 18.08C21.2333 18.2667 21.4853 18.5607 21.7 18.962L22.75 20.908C22.862 21.104 22.9133 21.2953 22.904 21.482C22.8947 21.6687 22.8247 21.8227 22.694 21.944C22.5633 22.056 22.372 22.112 22.12 22.112C21.868 22.112 21.6627 22.0607 21.504 21.958C21.3453 21.846 21.2053 21.678 21.084 21.454L19.67 18.85C19.502 18.5327 19.3013 18.3227 19.068 18.22C18.844 18.108 18.5547 18.052 18.2 18.052H16.87V21.188C16.87 21.4773 16.7953 21.706 16.646 21.874C16.4967 22.0327 16.2727 22.112 15.974 22.112ZM16.87 16.722H19.054C19.698 16.722 20.1833 16.5913 20.51 16.33C20.846 16.0593 21.014 15.658 21.014 15.126C21.014 14.6033 20.846 14.2113 20.51 13.95C20.1833 13.6793 19.698 13.544 19.054 13.544H16.87V16.722ZM27.7039 22.14C26.9293 22.14 26.2619 21.9953 25.7019 21.706C25.1419 21.4167 24.7079 21.006 24.3999 20.474C24.1013 19.942 23.9519 19.312 23.9519 18.584C23.9519 17.8747 24.0966 17.254 24.3859 16.722C24.6846 16.19 25.0906 15.7747 25.6039 15.476C26.1266 15.168 26.7193 15.014 27.3819 15.014C27.8673 15.014 28.3013 15.0933 28.6839 15.252C29.0759 15.4107 29.4073 15.6393 29.6779 15.938C29.9579 16.2367 30.1679 16.6007 30.3079 17.03C30.4573 17.45 30.5319 17.926 30.5319 18.458C30.5319 18.626 30.4713 18.7567 30.3499 18.85C30.2379 18.934 30.0746 18.976 29.8599 18.976H25.3659V17.968H29.2999L29.0759 18.178C29.0759 17.7487 29.0106 17.3893 28.8799 17.1C28.7586 16.8107 28.5766 16.5913 28.3339 16.442C28.1006 16.2833 27.8066 16.204 27.4519 16.204C27.0599 16.204 26.7239 16.2973 26.4439 16.484C26.1733 16.6613 25.9633 16.918 25.8139 17.254C25.6739 17.5807 25.6039 17.9727 25.6039 18.43V18.528C25.6039 19.2933 25.7813 19.8673 26.1359 20.25C26.4999 20.6233 27.0319 20.81 27.7319 20.81C27.9746 20.81 28.2453 20.782 28.5439 20.726C28.8519 20.6607 29.1413 20.5533 29.4119 20.404C29.6079 20.292 29.7806 20.2453 29.9299 20.264C30.0793 20.2733 30.1959 20.3247 30.2799 20.418C30.3733 20.5113 30.4293 20.628 30.4479 20.768C30.4666 20.8987 30.4386 21.034 30.3639 21.174C30.2986 21.314 30.1819 21.4353 30.0139 21.538C29.6873 21.7433 29.3093 21.8973 28.8799 22C28.4599 22.0933 28.0679 22.14 27.7039 22.14ZM34.1718 22.14C33.6771 22.14 33.2338 22.0467 32.8418 21.86C32.4591 21.664 32.1558 21.4027 31.9318 21.076C31.7171 20.7493 31.6098 20.3807 31.6098 19.97C31.6098 19.466 31.7405 19.0693 32.0018 18.78C32.2631 18.4813 32.6878 18.2667 33.2758 18.136C33.8638 18.0053 34.6525 17.94 35.6418 17.94H36.3418V18.948H35.6558C35.0771 18.948 34.6151 18.976 34.2698 19.032C33.9245 19.088 33.6771 19.186 33.5278 19.326C33.3878 19.4567 33.3178 19.6433 33.3178 19.886C33.3178 20.194 33.4251 20.446 33.6398 20.642C33.8545 20.838 34.1531 20.936 34.5358 20.936C34.8438 20.936 35.1145 20.866 35.3478 20.726C35.5905 20.5767 35.7818 20.376 35.9218 20.124C36.0618 19.872 36.1318 19.5827 36.1318 19.256V17.646C36.1318 17.1793 36.0291 16.8433 35.8238 16.638C35.6185 16.4327 35.2731 16.33 34.7878 16.33C34.5171 16.33 34.2231 16.3627 33.9058 16.428C33.5978 16.4933 33.2711 16.6053 32.9258 16.764C32.7485 16.848 32.5898 16.8713 32.4498 16.834C32.3191 16.7967 32.2165 16.722 32.1418 16.61C32.0671 16.4887 32.0298 16.358 32.0298 16.218C32.0298 16.078 32.0671 15.9427 32.1418 15.812C32.2165 15.672 32.3425 15.5693 32.5198 15.504C32.9491 15.3267 33.3598 15.2007 33.7518 15.126C34.1531 15.0513 34.5171 15.014 34.8438 15.014C35.5158 15.014 36.0665 15.1167 36.4958 15.322C36.9345 15.5273 37.2611 15.84 37.4758 16.26C37.6905 16.6707 37.7978 17.2027 37.7978 17.856V21.216C37.7978 21.5053 37.7278 21.7293 37.5878 21.888C37.4478 22.0373 37.2471 22.112 36.9858 22.112C36.7245 22.112 36.5191 22.0373 36.3698 21.888C36.2298 21.7293 36.1598 21.5053 36.1598 21.216V20.544H36.2718C36.2065 20.8707 36.0758 21.1553 35.8798 21.398C35.6931 21.6313 35.4551 21.8133 35.1658 21.944C34.8765 22.0747 34.5451 22.14 34.1718 22.14ZM42.7381 22.14C42.0194 22.14 41.3941 21.9953 40.8621 21.706C40.3301 21.4073 39.9194 20.9873 39.6301 20.446C39.3407 19.9047 39.1961 19.27 39.1961 18.542C39.1961 17.9913 39.2754 17.5013 39.4341 17.072C39.6021 16.6333 39.8401 16.2647 40.1481 15.966C40.4561 15.658 40.8294 15.4247 41.2681 15.266C41.7067 15.098 42.1967 15.014 42.7381 15.014C43.0461 15.014 43.3774 15.056 43.7321 15.14C44.0961 15.224 44.4367 15.364 44.7541 15.56C44.9034 15.6533 45.0014 15.7653 45.0481 15.896C45.0947 16.0267 45.1041 16.162 45.0761 16.302C45.0481 16.4327 44.9874 16.5493 44.8941 16.652C44.8101 16.7453 44.7027 16.806 44.5721 16.834C44.4414 16.8527 44.2967 16.82 44.1381 16.736C43.9327 16.6147 43.7227 16.526 43.5081 16.47C43.2934 16.4047 43.0881 16.372 42.8921 16.372C42.5841 16.372 42.3134 16.4233 42.0801 16.526C41.8467 16.6193 41.6461 16.7593 41.4781 16.946C41.3194 17.1233 41.1981 17.3473 41.1141 17.618C41.0301 17.8887 40.9881 18.2013 40.9881 18.556C40.9881 19.2467 41.1514 19.7927 41.4781 20.194C41.8141 20.586 42.2854 20.782 42.8921 20.782C43.0881 20.782 43.2887 20.754 43.4941 20.698C43.7087 20.642 43.9234 20.5533 44.1381 20.432C44.2967 20.348 44.4367 20.32 44.5581 20.348C44.6887 20.376 44.7961 20.4413 44.8801 20.544C44.9641 20.6373 45.0154 20.754 45.0341 20.894C45.0527 21.0247 45.0341 21.1553 44.9781 21.286C44.9314 21.4167 44.8381 21.524 44.6981 21.608C44.3901 21.7947 44.0634 21.93 43.7181 22.014C43.3727 22.098 43.0461 22.14 42.7381 22.14ZM49.3409 22.14C48.7343 22.14 48.2256 22.0373 47.8149 21.832C47.4136 21.6267 47.1149 21.328 46.9189 20.936C46.7229 20.5347 46.6249 20.04 46.6249 19.452V16.47H45.8969C45.6729 16.47 45.5003 16.414 45.3789 16.302C45.2576 16.1807 45.1969 16.0173 45.1969 15.812C45.1969 15.5973 45.2576 15.434 45.3789 15.322C45.5003 15.21 45.6729 15.154 45.8969 15.154H46.6249V13.88C46.6249 13.5907 46.6996 13.3713 46.8489 13.222C47.0076 13.0727 47.2269 12.998 47.5069 12.998C47.7869 12.998 48.0016 13.0727 48.1509 13.222C48.3003 13.3713 48.3749 13.5907 48.3749 13.88V15.154H49.8589C50.0829 15.154 50.2556 15.21 50.3769 15.322C50.4983 15.434 50.5589 15.5973 50.5589 15.812C50.5589 16.0173 50.4983 16.1807 50.3769 16.302C50.2556 16.414 50.0829 16.47 49.8589 16.47H48.3749V19.354C48.3749 19.802 48.4729 20.138 48.6689 20.362C48.8649 20.586 49.1823 20.698 49.6209 20.698C49.7796 20.698 49.9196 20.684 50.0409 20.656C50.1623 20.628 50.2696 20.6093 50.3629 20.6C50.4749 20.5907 50.5683 20.628 50.6429 20.712C50.7176 20.7867 50.7549 20.9453 50.7549 21.188C50.7549 21.3747 50.7223 21.5427 50.6569 21.692C50.6009 21.832 50.4936 21.93 50.3349 21.986C50.2136 22.0233 50.0549 22.056 49.8589 22.084C49.6629 22.1213 49.4903 22.14 49.3409 22.14ZM52.6641 22.07C52.3467 22.07 52.0901 21.972 51.8941 21.776C51.7074 21.58 51.6141 21.328 51.6141 21.02C51.6141 20.7213 51.7074 20.4787 51.8941 20.292C52.0901 20.096 52.3467 19.998 52.6641 19.998C52.9907 19.998 53.2427 20.096 53.4201 20.292C53.6067 20.4787 53.7001 20.7213 53.7001 21.02C53.7001 21.328 53.6067 21.58 53.4201 21.776C53.2427 21.972 52.9907 22.07 52.6641 22.07ZM55.5229 22.098C55.2616 22.1073 55.0562 22.0373 54.9069 21.888C54.7576 21.7387 54.6829 21.5473 54.6829 21.314C54.6829 21.1367 54.7389 20.9827 54.8509 20.852C54.9536 20.712 55.1076 20.6373 55.3129 20.628L55.7329 20.6C56.1436 20.572 56.4516 20.446 56.6569 20.222C56.8716 19.9887 56.9789 19.6573 56.9789 19.228V12.928C56.9789 12.6293 57.0536 12.4053 57.2029 12.256C57.3616 12.0973 57.5856 12.018 57.8749 12.018C58.1642 12.018 58.3836 12.0973 58.5329 12.256C58.6916 12.4053 58.7709 12.6293 58.7709 12.928V19.214C58.7709 19.802 58.6636 20.3013 58.4489 20.712C58.2436 21.1227 57.9356 21.4447 57.5249 21.678C57.1142 21.902 56.6056 22.0327 55.9989 22.07L55.5229 22.098ZM64.3081 22.14C63.8975 22.14 63.4868 22.1073 63.0761 22.042C62.6655 21.986 62.2781 21.8973 61.9141 21.776C61.5501 21.6453 61.2235 21.4867 60.9341 21.3C60.7661 21.188 60.6495 21.0527 60.5841 20.894C60.5188 20.7353 60.4955 20.5813 60.5141 20.432C60.5421 20.2733 60.6028 20.138 60.6961 20.026C60.7988 19.9047 60.9248 19.83 61.0741 19.802C61.2235 19.774 61.3868 19.816 61.5641 19.928C61.9748 20.1707 62.4088 20.348 62.8661 20.46C63.3235 20.572 63.8041 20.628 64.3081 20.628C65.0455 20.628 65.5821 20.5067 65.9181 20.264C66.2541 20.012 66.4221 19.69 66.4221 19.298C66.4221 18.9713 66.3008 18.7147 66.0581 18.528C65.8248 18.3413 65.4188 18.1873 64.8401 18.066L63.3001 17.744C62.4135 17.5573 61.7508 17.2447 61.3121 16.806C60.8828 16.358 60.6681 15.77 60.6681 15.042C60.6681 14.5847 60.7615 14.1693 60.9481 13.796C61.1348 13.4227 61.3961 13.1007 61.7321 12.83C62.0775 12.5593 62.4835 12.354 62.9501 12.214C63.4261 12.0647 63.9488 11.99 64.5181 11.99C65.0781 11.99 65.6101 12.06 66.1141 12.2C66.6181 12.34 67.0708 12.5453 67.4721 12.816C67.6215 12.9187 67.7195 13.0447 67.7661 13.194C67.8221 13.3433 67.8361 13.4927 67.8081 13.642C67.7801 13.782 67.7148 13.9033 67.6121 14.006C67.5095 14.1087 67.3788 14.1693 67.2201 14.188C67.0708 14.2067 66.8981 14.16 66.7021 14.048C66.3568 13.852 66.0068 13.712 65.6521 13.628C65.2975 13.544 64.9148 13.502 64.5041 13.502C64.0748 13.502 63.7061 13.5627 63.3981 13.684C63.0901 13.8053 62.8521 13.978 62.6841 14.202C62.5255 14.4167 62.4461 14.6733 62.4461 14.972C62.4461 15.308 62.5581 15.5787 62.7821 15.784C63.0061 15.98 63.3888 16.134 63.9301 16.246L65.4561 16.568C66.3801 16.764 67.0661 17.072 67.5141 17.492C67.9715 17.912 68.2001 18.472 68.2001 19.172C68.2001 19.62 68.1068 20.026 67.9201 20.39C67.7428 20.754 67.4815 21.0667 67.1361 21.328C66.8001 21.5893 66.3941 21.79 65.9181 21.93C65.4421 22.07 64.9055 22.14 64.3081 22.14Z" fill="#191919"/>
</svg>
